<mxfile host="app.diagrams.net" agent="Mozilla/5.0 (Windows NT 10.0; Win64; x64) AppleWebKit/537.36 (KHTML, like Gecko) Chrome/137.0.0.0 Safari/537.36" version="27.1.5">
  <diagram name="PÃ¡gina-1" id="wQ1yioGg6K0sT37fEku2">
    <mxGraphModel dx="1938" dy="1676" grid="1" gridSize="10" guides="1" tooltips="1" connect="1" arrows="1" fold="1" page="1" pageScale="1" pageWidth="827" pageHeight="1169" background="#FFFFFF" math="0" shadow="1">
      <root>
        <mxCell id="0" />
        <mxCell id="1" parent="0" />
        <mxCell id="k6RNii8f1NBobVwHWlQs-1" value="" style="rounded=0;whiteSpace=wrap;html=1;rotation=90;" parent="1" vertex="1">
          <mxGeometry x="-802.77" y="914.95" width="2439.29" height="354.46" as="geometry" />
        </mxCell>
        <mxCell id="k6RNii8f1NBobVwHWlQs-2" value="" style="ellipse;whiteSpace=wrap;html=1;aspect=fixed;" parent="1" vertex="1">
          <mxGeometry x="255" y="-110" width="40" height="40" as="geometry" />
        </mxCell>
        <mxCell id="k6RNii8f1NBobVwHWlQs-4" value="" style="shape=partialRectangle;whiteSpace=wrap;html=1;top=0;bottom=0;fillColor=none;rotation=90;" parent="1" vertex="1">
          <mxGeometry x="549.11" y="-117.33" width="14.66" height="40" as="geometry" />
        </mxCell>
        <mxCell id="k6RNii8f1NBobVwHWlQs-6" value="" style="shape=partialRectangle;whiteSpace=wrap;html=1;right=0;top=0;bottom=0;fillColor=none;routingCenterX=-0.5;rotation=90;" parent="1" vertex="1">
          <mxGeometry x="531.5" y="-70" width="50" height="40" as="geometry" />
        </mxCell>
        <mxCell id="k6RNii8f1NBobVwHWlQs-8" value="&lt;b&gt;H1&lt;/b&gt;" style="text;html=1;align=center;verticalAlign=middle;whiteSpace=wrap;rounded=0;" parent="1" vertex="1">
          <mxGeometry x="379" y="25" width="60" height="30" as="geometry" />
        </mxCell>
        <mxCell id="k6RNii8f1NBobVwHWlQs-9" value="&lt;b&gt;H1&lt;/b&gt;" style="text;html=1;align=center;verticalAlign=middle;whiteSpace=wrap;rounded=0;" parent="1" vertex="1">
          <mxGeometry x="379" y="110" width="60" height="30" as="geometry" />
        </mxCell>
        <mxCell id="k6RNii8f1NBobVwHWlQs-10" value="" style="ellipse;whiteSpace=wrap;html=1;aspect=fixed;" parent="1" vertex="1">
          <mxGeometry x="389" y="440" width="50" height="50" as="geometry" />
        </mxCell>
        <mxCell id="k6RNii8f1NBobVwHWlQs-14" value="" style="ellipse;whiteSpace=wrap;html=1;aspect=fixed;" parent="1" vertex="1">
          <mxGeometry x="389" y="300" width="50" height="50" as="geometry" />
        </mxCell>
        <mxCell id="k6RNii8f1NBobVwHWlQs-15" value="" style="ellipse;whiteSpace=wrap;html=1;aspect=fixed;" parent="1" vertex="1">
          <mxGeometry x="385.01" y="160" width="50" height="50" as="geometry" />
        </mxCell>
        <mxCell id="k6RNii8f1NBobVwHWlQs-16" value="&lt;b&gt;H1&lt;/b&gt;" style="text;html=1;align=center;verticalAlign=middle;whiteSpace=wrap;rounded=0;" parent="1" vertex="1">
          <mxGeometry x="377" y="580" width="60" height="30" as="geometry" />
        </mxCell>
        <mxCell id="k6RNii8f1NBobVwHWlQs-18" value="" style="ellipse;whiteSpace=wrap;html=1;aspect=fixed;" parent="1" vertex="1">
          <mxGeometry x="290" y="640" width="50" height="50" as="geometry" />
        </mxCell>
        <mxCell id="k6RNii8f1NBobVwHWlQs-19" value="" style="ellipse;whiteSpace=wrap;html=1;aspect=fixed;" parent="1" vertex="1">
          <mxGeometry x="290" y="720" width="50" height="50" as="geometry" />
        </mxCell>
        <mxCell id="k6RNii8f1NBobVwHWlQs-20" value="" style="ellipse;whiteSpace=wrap;html=1;aspect=fixed;" parent="1" vertex="1">
          <mxGeometry x="290" y="800" width="50" height="50" as="geometry" />
        </mxCell>
        <mxCell id="k6RNii8f1NBobVwHWlQs-21" value="" style="ellipse;whiteSpace=wrap;html=1;aspect=fixed;" parent="1" vertex="1">
          <mxGeometry x="290" y="880" width="50" height="50" as="geometry" />
        </mxCell>
        <mxCell id="k6RNii8f1NBobVwHWlQs-23" value="" style="ellipse;whiteSpace=wrap;html=1;aspect=fixed;" parent="1" vertex="1">
          <mxGeometry x="290" y="950" width="50" height="50" as="geometry" />
        </mxCell>
        <mxCell id="k6RNii8f1NBobVwHWlQs-24" value="" style="ellipse;whiteSpace=wrap;html=1;aspect=fixed;" parent="1" vertex="1">
          <mxGeometry x="290" y="1030" width="50" height="50" as="geometry" />
        </mxCell>
        <mxCell id="k6RNii8f1NBobVwHWlQs-26" value="" style="shape=actor;whiteSpace=wrap;html=1;" parent="1" vertex="1">
          <mxGeometry x="302.5" y="650" width="25" height="30" as="geometry" />
        </mxCell>
        <mxCell id="k6RNii8f1NBobVwHWlQs-27" value="" style="shape=actor;whiteSpace=wrap;html=1;" parent="1" vertex="1">
          <mxGeometry x="302.5" y="810" width="25" height="30" as="geometry" />
        </mxCell>
        <mxCell id="k6RNii8f1NBobVwHWlQs-28" value="" style="shape=actor;whiteSpace=wrap;html=1;" parent="1" vertex="1">
          <mxGeometry x="302.5" y="730" width="25" height="30" as="geometry" />
        </mxCell>
        <mxCell id="k6RNii8f1NBobVwHWlQs-29" value="" style="shape=actor;whiteSpace=wrap;html=1;" parent="1" vertex="1">
          <mxGeometry x="302.5" y="890" width="25" height="30" as="geometry" />
        </mxCell>
        <mxCell id="k6RNii8f1NBobVwHWlQs-30" value="" style="shape=actor;whiteSpace=wrap;html=1;" parent="1" vertex="1">
          <mxGeometry x="302.5" y="960" width="25" height="30" as="geometry" />
        </mxCell>
        <mxCell id="k6RNii8f1NBobVwHWlQs-31" value="" style="shape=actor;whiteSpace=wrap;html=1;" parent="1" vertex="1">
          <mxGeometry x="302.5" y="1040" width="25" height="30" as="geometry" />
        </mxCell>
        <mxCell id="k6RNii8f1NBobVwHWlQs-33" value="" style="shape=partialRectangle;whiteSpace=wrap;html=1;top=0;bottom=0;fillColor=none;rotation=90;" parent="1" vertex="1">
          <mxGeometry x="380" y="645" width="10" height="40" as="geometry" />
        </mxCell>
        <mxCell id="k6RNii8f1NBobVwHWlQs-34" value="" style="shape=partialRectangle;whiteSpace=wrap;html=1;top=0;bottom=0;fillColor=none;rotation=90;" parent="1" vertex="1">
          <mxGeometry x="380" y="720" width="10" height="40" as="geometry" />
        </mxCell>
        <mxCell id="k6RNii8f1NBobVwHWlQs-35" value="" style="shape=partialRectangle;whiteSpace=wrap;html=1;top=0;bottom=0;fillColor=none;rotation=90;" parent="1" vertex="1">
          <mxGeometry x="380" y="800" width="10" height="40" as="geometry" />
        </mxCell>
        <mxCell id="k6RNii8f1NBobVwHWlQs-36" value="" style="shape=partialRectangle;whiteSpace=wrap;html=1;top=0;bottom=0;fillColor=none;rotation=90;" parent="1" vertex="1">
          <mxGeometry x="380" y="885" width="10" height="40" as="geometry" />
        </mxCell>
        <mxCell id="k6RNii8f1NBobVwHWlQs-37" value="" style="shape=partialRectangle;whiteSpace=wrap;html=1;top=0;bottom=0;fillColor=none;rotation=90;" parent="1" vertex="1">
          <mxGeometry x="380" y="955" width="10" height="40" as="geometry" />
        </mxCell>
        <mxCell id="k6RNii8f1NBobVwHWlQs-40" value="" style="verticalLabelPosition=bottom;verticalAlign=top;html=1;shape=mxgraph.basic.rect;fillColor2=none;strokeWidth=1;size=20;indent=5;fillColor=none;" parent="1" vertex="1">
          <mxGeometry x="280" y="635" width="260" height="60" as="geometry" />
        </mxCell>
        <mxCell id="k6RNii8f1NBobVwHWlQs-41" value="" style="verticalLabelPosition=bottom;verticalAlign=top;html=1;shape=mxgraph.basic.rect;fillColor2=none;strokeWidth=1;size=20;indent=5;fillColor=none;" parent="1" vertex="1">
          <mxGeometry x="284" y="715" width="256" height="60" as="geometry" />
        </mxCell>
        <mxCell id="k6RNii8f1NBobVwHWlQs-42" value="" style="verticalLabelPosition=bottom;verticalAlign=top;html=1;shape=mxgraph.basic.rect;fillColor2=none;strokeWidth=1;size=20;indent=5;fillColor=none;" parent="1" vertex="1">
          <mxGeometry x="284" y="795" width="256" height="60" as="geometry" />
        </mxCell>
        <mxCell id="k6RNii8f1NBobVwHWlQs-43" value="" style="verticalLabelPosition=bottom;verticalAlign=top;html=1;shape=mxgraph.basic.rect;fillColor2=none;strokeWidth=1;size=20;indent=5;fillColor=none;" parent="1" vertex="1">
          <mxGeometry x="286" y="875" width="256" height="60" as="geometry" />
        </mxCell>
        <mxCell id="k6RNii8f1NBobVwHWlQs-44" value="" style="verticalLabelPosition=bottom;verticalAlign=top;html=1;shape=mxgraph.basic.rect;fillColor2=none;strokeWidth=1;size=20;indent=5;fillColor=none;" parent="1" vertex="1">
          <mxGeometry x="286" y="945" width="256" height="60" as="geometry" />
        </mxCell>
        <mxCell id="k6RNii8f1NBobVwHWlQs-45" value="" style="verticalLabelPosition=bottom;verticalAlign=top;html=1;shape=mxgraph.basic.rect;fillColor2=none;strokeWidth=1;size=20;indent=5;fillColor=none;" parent="1" vertex="1">
          <mxGeometry x="283" y="1025" width="256" height="60" as="geometry" />
        </mxCell>
        <mxCell id="k6RNii8f1NBobVwHWlQs-48" value="" style="shape=partialRectangle;whiteSpace=wrap;html=1;top=0;bottom=0;fillColor=none;rotation=90;" parent="1" vertex="1">
          <mxGeometry x="380" y="1035" width="10" height="40" as="geometry" />
        </mxCell>
        <mxCell id="k6RNii8f1NBobVwHWlQs-51" value="" style="rounded=0;whiteSpace=wrap;html=1;" parent="1" vertex="1">
          <mxGeometry x="381" y="1160" width="60" height="60" as="geometry" />
        </mxCell>
        <mxCell id="k6RNii8f1NBobVwHWlQs-52" value="&lt;b&gt;H1&lt;/b&gt;" style="text;html=1;align=center;verticalAlign=middle;whiteSpace=wrap;rounded=0;" parent="1" vertex="1">
          <mxGeometry x="381" y="1120" width="60" height="30" as="geometry" />
        </mxCell>
        <mxCell id="k6RNii8f1NBobVwHWlQs-53" value="&lt;b&gt;H1&lt;/b&gt;" style="text;html=1;align=center;verticalAlign=middle;whiteSpace=wrap;rounded=0;" parent="1" vertex="1">
          <mxGeometry x="382" y="1460" width="60" height="30" as="geometry" />
        </mxCell>
        <mxCell id="k6RNii8f1NBobVwHWlQs-54" value="" style="rounded=0;whiteSpace=wrap;html=1;" parent="1" vertex="1">
          <mxGeometry x="295" y="1550" width="237.5" height="170" as="geometry" />
        </mxCell>
        <mxCell id="k6RNii8f1NBobVwHWlQs-55" value="" style="shape=partialRectangle;whiteSpace=wrap;html=1;top=0;bottom=0;fillColor=none;rotation=90;" parent="1" vertex="1">
          <mxGeometry x="406" y="1480" width="10" height="85" as="geometry" />
        </mxCell>
        <mxCell id="k6RNii8f1NBobVwHWlQs-56" value="" style="verticalLabelPosition=bottom;verticalAlign=top;html=1;shape=mxgraph.basic.drop;rotation=-180;" parent="1" vertex="1">
          <mxGeometry x="378.75" y="1630" width="60" height="90" as="geometry" />
        </mxCell>
        <mxCell id="k6RNii8f1NBobVwHWlQs-58" value="" style="ellipse;whiteSpace=wrap;html=1;aspect=fixed;fillColor=none;" parent="1" vertex="1">
          <mxGeometry x="394" y="1640" width="30" height="30" as="geometry" />
        </mxCell>
        <mxCell id="k6RNii8f1NBobVwHWlQs-59" value="" style="shape=partialRectangle;whiteSpace=wrap;html=1;top=0;bottom=0;fillColor=none;rotation=90;" parent="1" vertex="1">
          <mxGeometry x="406" y="220" width="10" height="40" as="geometry" />
        </mxCell>
        <mxCell id="k6RNii8f1NBobVwHWlQs-60" value="" style="shape=partialRectangle;whiteSpace=wrap;html=1;top=0;bottom=0;fillColor=none;rotation=90;" parent="1" vertex="1">
          <mxGeometry x="409" y="360" width="10" height="40" as="geometry" />
        </mxCell>
        <mxCell id="k6RNii8f1NBobVwHWlQs-61" value="" style="shape=partialRectangle;whiteSpace=wrap;html=1;top=0;bottom=0;fillColor=none;rotation=90;" parent="1" vertex="1">
          <mxGeometry x="409" y="500" width="10" height="40" as="geometry" />
        </mxCell>
        <mxCell id="k6RNii8f1NBobVwHWlQs-63" value="" style="verticalLabelPosition=bottom;verticalAlign=top;html=1;shape=mxgraph.basic.rect;fillColor2=none;strokeWidth=1;size=20;indent=5;fillColor=none;rotation=90;" parent="1" vertex="1">
          <mxGeometry x="352" y="160" width="120" height="90" as="geometry" />
        </mxCell>
        <mxCell id="k6RNii8f1NBobVwHWlQs-64" value="" style="verticalLabelPosition=bottom;verticalAlign=top;html=1;shape=mxgraph.basic.rect;fillColor2=none;strokeWidth=1;size=20;indent=5;fillColor=none;rotation=90;" parent="1" vertex="1">
          <mxGeometry x="352" y="300" width="120" height="90" as="geometry" />
        </mxCell>
        <mxCell id="k6RNii8f1NBobVwHWlQs-65" value="" style="verticalLabelPosition=bottom;verticalAlign=top;html=1;shape=mxgraph.basic.rect;fillColor2=none;strokeWidth=1;size=20;indent=5;fillColor=none;rotation=90;" parent="1" vertex="1">
          <mxGeometry x="354" y="440" width="120" height="90" as="geometry" />
        </mxCell>
        <mxCell id="k6RNii8f1NBobVwHWlQs-67" value="" style="verticalLabelPosition=bottom;verticalAlign=top;html=1;shape=mxgraph.basic.rect;fillColor2=none;strokeWidth=1;size=20;indent=5;rotation=90;" parent="1" vertex="1">
          <mxGeometry x="260.92" y="1880" width="300.16" height="191.56" as="geometry" />
        </mxCell>
        <mxCell id="k6RNii8f1NBobVwHWlQs-68" value="&lt;b&gt;H1&lt;/b&gt;" style="text;html=1;align=center;verticalAlign=middle;whiteSpace=wrap;rounded=0;" parent="1" vertex="1">
          <mxGeometry x="377" y="1760" width="60" height="30" as="geometry" />
        </mxCell>
        <mxCell id="k6RNii8f1NBobVwHWlQs-69" value="" style="verticalLabelPosition=bottom;verticalAlign=top;html=1;shape=mxgraph.basic.rect;fillColor2=none;strokeWidth=1;size=20;indent=5;fillColor=none;" parent="1" vertex="1">
          <mxGeometry x="351" y="1880" width="120" height="20" as="geometry" />
        </mxCell>
        <mxCell id="k6RNii8f1NBobVwHWlQs-70" value="" style="verticalLabelPosition=bottom;verticalAlign=top;html=1;shape=mxgraph.basic.rect;fillColor2=none;strokeWidth=1;size=20;indent=5;fillColor=none;" parent="1" vertex="1">
          <mxGeometry x="351" y="1920" width="120" height="20" as="geometry" />
        </mxCell>
        <mxCell id="k6RNii8f1NBobVwHWlQs-71" value="" style="verticalLabelPosition=bottom;verticalAlign=top;html=1;shape=mxgraph.basic.rect;fillColor2=none;strokeWidth=1;size=20;indent=5;fillColor=none;" parent="1" vertex="1">
          <mxGeometry x="352" y="1960" width="120" height="20" as="geometry" />
        </mxCell>
        <mxCell id="k6RNii8f1NBobVwHWlQs-72" value="" style="verticalLabelPosition=bottom;verticalAlign=top;html=1;shape=mxgraph.basic.rect;fillColor2=none;strokeWidth=1;size=20;indent=5;fillColor=none;" parent="1" vertex="1">
          <mxGeometry x="351" y="2000" width="120" height="20" as="geometry" />
        </mxCell>
        <mxCell id="k6RNii8f1NBobVwHWlQs-73" value="" style="verticalLabelPosition=bottom;verticalAlign=top;html=1;shape=mxgraph.basic.rect;fillColor2=none;strokeWidth=1;size=20;indent=5;fillColor=none;" parent="1" vertex="1">
          <mxGeometry x="350" y="2040" width="120" height="20" as="geometry" />
        </mxCell>
        <mxCell id="k6RNii8f1NBobVwHWlQs-75" value="" style="verticalLabelPosition=bottom;verticalAlign=top;html=1;shape=mxgraph.basic.rounded_frame;dx=10;whiteSpace=wrap;" parent="1" vertex="1">
          <mxGeometry x="372" y="2080" width="70" height="30" as="geometry" />
        </mxCell>
        <mxCell id="k6RNii8f1NBobVwHWlQs-76" value="" style="verticalLabelPosition=bottom;verticalAlign=top;html=1;shape=mxgraph.basic.rect;fillColor2=none;strokeWidth=1;size=20;indent=5;fillColor=none;" parent="1" vertex="1">
          <mxGeometry x="242" y="2180" width="350" height="130" as="geometry" />
        </mxCell>
        <mxCell id="k6RNii8f1NBobVwHWlQs-77" value="" style="shape=partialRectangle;whiteSpace=wrap;html=1;top=0;bottom=0;fillColor=none;rotation=90;" parent="1" vertex="1">
          <mxGeometry x="452" y="2180" width="8.5" height="35" as="geometry" />
        </mxCell>
        <mxCell id="k6RNii8f1NBobVwHWlQs-78" value="" style="shape=partialRectangle;whiteSpace=wrap;html=1;top=0;bottom=0;fillColor=none;rotation=0;direction=south;" parent="1" vertex="1">
          <mxGeometry x="438.75" y="2207.5" width="35" height="10" as="geometry" />
        </mxCell>
        <mxCell id="k6RNii8f1NBobVwHWlQs-80" value="" style="shape=partialRectangle;whiteSpace=wrap;html=1;top=0;bottom=0;fillColor=none;rotation=90;" parent="1" vertex="1">
          <mxGeometry x="452" y="2210" width="10" height="35" as="geometry" />
        </mxCell>
        <mxCell id="k6RNii8f1NBobVwHWlQs-82" value="" style="shape=partialRectangle;whiteSpace=wrap;html=1;top=0;bottom=0;fillColor=none;rotation=90;" parent="1" vertex="1">
          <mxGeometry x="452" y="2235" width="10" height="35" as="geometry" />
        </mxCell>
        <mxCell id="k6RNii8f1NBobVwHWlQs-84" value="" style="whiteSpace=wrap;html=1;aspect=fixed;fillColor=none;" parent="1" vertex="1">
          <mxGeometry x="547" y="2190" width="30" height="30" as="geometry" />
        </mxCell>
        <mxCell id="k6RNii8f1NBobVwHWlQs-87" value="" style="shape=partialRectangle;whiteSpace=wrap;html=1;top=0;bottom=0;fillColor=none;rotation=90;" parent="1" vertex="1">
          <mxGeometry x="451.25" y="2280" width="10" height="35" as="geometry" />
        </mxCell>
        <mxCell id="k6RNii8f1NBobVwHWlQs-88" value="" style="shape=partialRectangle;whiteSpace=wrap;html=1;top=0;bottom=0;fillColor=none;rotation=90;" parent="1" vertex="1">
          <mxGeometry x="452" y="2260" width="10" height="35" as="geometry" />
        </mxCell>
        <mxCell id="k6RNii8f1NBobVwHWlQs-89" value="" style="whiteSpace=wrap;html=1;aspect=fixed;fillColor=none;" parent="1" vertex="1">
          <mxGeometry x="546.44" y="2230" width="30" height="30" as="geometry" />
        </mxCell>
        <mxCell id="k6RNii8f1NBobVwHWlQs-90" value="" style="whiteSpace=wrap;html=1;aspect=fixed;fillColor=none;" parent="1" vertex="1">
          <mxGeometry x="547" y="2270" width="30" height="30" as="geometry" />
        </mxCell>
        <mxCell id="k6RNii8f1NBobVwHWlQs-91" value="" style="ellipse;whiteSpace=wrap;html=1;aspect=fixed;" parent="1" vertex="1">
          <mxGeometry x="277" y="2215" width="50" height="50" as="geometry" />
        </mxCell>
        <mxCell id="k6RNii8f1NBobVwHWlQs-92" value="pagina de inicio" style="text;html=1;align=center;verticalAlign=middle;resizable=0;points=[];autosize=1;strokeColor=none;fillColor=none;" parent="1" vertex="1">
          <mxGeometry x="692" y="90" width="110" height="30" as="geometry" />
        </mxCell>
        <mxCell id="k6RNii8f1NBobVwHWlQs-93" value="" style="rounded=0;whiteSpace=wrap;html=1;rotation=90;fillColor=none;" parent="1" vertex="1">
          <mxGeometry x="97.2" y="2535.32" width="625.62" height="380" as="geometry" />
        </mxCell>
        <mxCell id="k6RNii8f1NBobVwHWlQs-94" value="" style="ellipse;whiteSpace=wrap;html=1;aspect=fixed;" parent="1" vertex="1">
          <mxGeometry x="355" y="2528.13" width="110" height="110" as="geometry" />
        </mxCell>
        <mxCell id="k6RNii8f1NBobVwHWlQs-95" value="" style="shape=partialRectangle;whiteSpace=wrap;html=1;top=0;bottom=0;fillColor=none;rotation=90;" parent="1" vertex="1">
          <mxGeometry x="410.39" y="2585" width="10" height="175" as="geometry" />
        </mxCell>
        <mxCell id="k6RNii8f1NBobVwHWlQs-96" value="" style="rounded=0;whiteSpace=wrap;html=1;fillColor=none;rotation=90;" parent="1" vertex="1">
          <mxGeometry x="299.88" y="2720" width="220.12" height="267.5" as="geometry" />
        </mxCell>
        <mxCell id="k6RNii8f1NBobVwHWlQs-97" value="" style="rounded=0;whiteSpace=wrap;html=1;" parent="1" vertex="1">
          <mxGeometry x="293.44" y="2780" width="233" height="20" as="geometry" />
        </mxCell>
        <mxCell id="k6RNii8f1NBobVwHWlQs-98" value="" style="rounded=0;whiteSpace=wrap;html=1;" parent="1" vertex="1">
          <mxGeometry x="297.5" y="2820" width="233" height="20" as="geometry" />
        </mxCell>
        <mxCell id="k6RNii8f1NBobVwHWlQs-100" value="" style="whiteSpace=wrap;html=1;aspect=fixed;fillColor=none;" parent="1" vertex="1">
          <mxGeometry x="309" y="2510" width="206" height="206" as="geometry" />
        </mxCell>
        <mxCell id="k6RNii8f1NBobVwHWlQs-101" value="" style="shape=singleArrow;direction=west;whiteSpace=wrap;html=1;arrowWidth=0.4;arrowSize=0.28;" parent="1" vertex="1">
          <mxGeometry x="231.5" y="2440" width="40" height="20" as="geometry" />
        </mxCell>
        <mxCell id="k6RNii8f1NBobVwHWlQs-102" value="" style="verticalLabelPosition=bottom;verticalAlign=top;html=1;shape=mxgraph.basic.rounded_frame;dx=10;whiteSpace=wrap;" parent="1" vertex="1">
          <mxGeometry x="342.5" y="2903" width="135" height="40" as="geometry" />
        </mxCell>
        <mxCell id="k6RNii8f1NBobVwHWlQs-103" value="" style="shape=partialRectangle;whiteSpace=wrap;html=1;top=0;bottom=0;fillColor=none;rotation=90;" parent="1" vertex="1">
          <mxGeometry x="405" y="2830" width="10" height="105" as="geometry" />
        </mxCell>
        <mxCell id="k6RNii8f1NBobVwHWlQs-104" value="vista para el login del admin" style="text;html=1;align=center;verticalAlign=middle;resizable=0;points=[];autosize=1;strokeColor=none;fillColor=none;" parent="1" vertex="1">
          <mxGeometry x="327" y="2380" width="170" height="30" as="geometry" />
        </mxCell>
        <mxCell id="k6RNii8f1NBobVwHWlQs-105" value="" style="verticalLabelPosition=bottom;verticalAlign=top;html=1;shape=mxgraph.basic.rect;fillColor2=none;strokeWidth=1;size=20;indent=5;fillColor=none;" parent="1" vertex="1">
          <mxGeometry x="220" y="2420" width="380" height="60" as="geometry" />
        </mxCell>
        <mxCell id="k6RNii8f1NBobVwHWlQs-106" value="" style="shape=partialRectangle;whiteSpace=wrap;html=1;top=0;bottom=0;fillColor=none;rotation=90;" parent="1" vertex="1">
          <mxGeometry x="400.39" y="2950" width="10" height="105" as="geometry" />
        </mxCell>
        <mxCell id="k6RNii8f1NBobVwHWlQs-107" value="" style="rounded=0;whiteSpace=wrap;html=1;" parent="1" vertex="1">
          <mxGeometry x="225" y="3158" width="380" height="710" as="geometry" />
        </mxCell>
        <mxCell id="k6RNii8f1NBobVwHWlQs-108" value="panel del admin" style="text;html=1;align=center;verticalAlign=middle;resizable=0;points=[];autosize=1;strokeColor=none;fillColor=none;" parent="1" vertex="1">
          <mxGeometry x="360" y="3128" width="110" height="30" as="geometry" />
        </mxCell>
        <mxCell id="k6RNii8f1NBobVwHWlQs-109" value="" style="rounded=0;whiteSpace=wrap;html=1;fillColor=none;" parent="1" vertex="1">
          <mxGeometry x="232" y="3190" width="358" height="60" as="geometry" />
        </mxCell>
        <mxCell id="k6RNii8f1NBobVwHWlQs-110" value="" style="ellipse;whiteSpace=wrap;html=1;aspect=fixed;" parent="1" vertex="1">
          <mxGeometry x="530" y="3195" width="50" height="50" as="geometry" />
        </mxCell>
        <mxCell id="k6RNii8f1NBobVwHWlQs-111" value="" style="shape=singleArrow;direction=west;whiteSpace=wrap;html=1;arrowWidth=0.3333333333333333;arrowSize=0.24;" parent="1" vertex="1">
          <mxGeometry x="240" y="3205" width="40" height="30" as="geometry" />
        </mxCell>
        <mxCell id="k6RNii8f1NBobVwHWlQs-112" value="" style="shape=partialRectangle;whiteSpace=wrap;html=1;top=0;bottom=0;fillColor=none;rotation=90;" parent="1" vertex="1">
          <mxGeometry x="397" y="3235" width="10" height="105" as="geometry" />
        </mxCell>
        <mxCell id="k6RNii8f1NBobVwHWlQs-113" value="" style="rounded=0;whiteSpace=wrap;html=1;fillColor=none;" parent="1" vertex="1">
          <mxGeometry x="317" y="3261.25" width="170" height="52.5" as="geometry" />
        </mxCell>
        <mxCell id="k6RNii8f1NBobVwHWlQs-116" value="" style="rounded=0;whiteSpace=wrap;html=1;" parent="1" vertex="1">
          <mxGeometry x="220" y="3340" width="142" height="30" as="geometry" />
        </mxCell>
        <mxCell id="k6RNii8f1NBobVwHWlQs-117" value="" style="rounded=0;whiteSpace=wrap;html=1;" parent="1" vertex="1">
          <mxGeometry x="350.39" y="3340" width="130" height="30" as="geometry" />
        </mxCell>
        <mxCell id="k6RNii8f1NBobVwHWlQs-118" value="" style="rounded=0;whiteSpace=wrap;html=1;" parent="1" vertex="1">
          <mxGeometry x="470" y="3340" width="132" height="30" as="geometry" />
        </mxCell>
        <mxCell id="k6RNii8f1NBobVwHWlQs-119" value="" style="shape=partialRectangle;whiteSpace=wrap;html=1;top=0;bottom=0;fillColor=none;rotation=90;" parent="1" vertex="1">
          <mxGeometry x="275" y="3380" width="10" height="60" as="geometry" />
        </mxCell>
        <mxCell id="k6RNii8f1NBobVwHWlQs-120" value="" style="verticalLabelPosition=bottom;verticalAlign=top;html=1;shape=mxgraph.basic.rect;fillColor2=none;strokeWidth=1;size=20;indent=5;fillColor=none;" parent="1" vertex="1">
          <mxGeometry x="260" y="3450" width="310" height="60" as="geometry" />
        </mxCell>
        <mxCell id="k6RNii8f1NBobVwHWlQs-121" value="" style="shape=partialRectangle;whiteSpace=wrap;html=1;top=0;bottom=0;fillColor=none;rotation=90;" parent="1" vertex="1">
          <mxGeometry x="524.14" y="3450" width="10" height="60" as="geometry" />
        </mxCell>
        <mxCell id="k6RNii8f1NBobVwHWlQs-122" value="" style="verticalLabelPosition=bottom;verticalAlign=top;html=1;shape=mxgraph.basic.rect;fillColor2=none;strokeWidth=1;size=20;indent=5;fillColor=none;" parent="1" vertex="1">
          <mxGeometry x="259" y="3550" width="310" height="60" as="geometry" />
        </mxCell>
        <mxCell id="k6RNii8f1NBobVwHWlQs-123" value="" style="shape=partialRectangle;whiteSpace=wrap;html=1;top=0;bottom=0;fillColor=none;rotation=90;" parent="1" vertex="1">
          <mxGeometry x="526.4399999999999" y="3550" width="10" height="60" as="geometry" />
        </mxCell>
        <mxCell id="k6RNii8f1NBobVwHWlQs-124" value="" style="shape=partialRectangle;whiteSpace=wrap;html=1;top=0;bottom=0;fillColor=none;rotation=90;" parent="1" vertex="1">
          <mxGeometry x="287.5" y="3620" width="10" height="60" as="geometry" />
        </mxCell>
        <mxCell id="k6RNii8f1NBobVwHWlQs-125" value="" style="verticalLabelPosition=bottom;verticalAlign=top;html=1;shape=mxgraph.basic.rounded_frame;dx=10;whiteSpace=wrap;" parent="1" vertex="1">
          <mxGeometry x="300" y="3760" width="250" height="60" as="geometry" />
        </mxCell>
        <mxCell id="k6RNii8f1NBobVwHWlQs-127" value="" style="verticalLabelPosition=bottom;verticalAlign=top;html=1;shape=mxgraph.basic.rounded_frame;dx=10;whiteSpace=wrap;" parent="1" vertex="1">
          <mxGeometry x="300" y="3680" width="250" height="60" as="geometry" />
        </mxCell>
        <mxCell id="k6RNii8f1NBobVwHWlQs-128" value="" style="rounded=0;whiteSpace=wrap;html=1;fillColor=none;" parent="1" vertex="1">
          <mxGeometry x="230.2" y="3980" width="380" height="710" as="geometry" />
        </mxCell>
        <mxCell id="k6RNii8f1NBobVwHWlQs-130" value="formulario de contacto" style="text;html=1;align=center;verticalAlign=middle;resizable=0;points=[];autosize=1;strokeColor=none;fillColor=none;" parent="1" vertex="1">
          <mxGeometry x="604" y="1800" width="140" height="30" as="geometry" />
        </mxCell>
        <mxCell id="k6RNii8f1NBobVwHWlQs-132" value="" style="rounded=0;whiteSpace=wrap;html=1;fillColor=none;" parent="1" vertex="1">
          <mxGeometry x="230.2" y="3980" width="379.61" height="60" as="geometry" />
        </mxCell>
        <mxCell id="k6RNii8f1NBobVwHWlQs-133" value="" style="ellipse;whiteSpace=wrap;html=1;aspect=fixed;" parent="1" vertex="1">
          <mxGeometry x="536.44" y="3985" width="50" height="50" as="geometry" />
        </mxCell>
        <mxCell id="k6RNii8f1NBobVwHWlQs-134" value="busquedas" style="text;html=1;align=center;verticalAlign=middle;whiteSpace=wrap;rounded=0;" parent="1" vertex="1">
          <mxGeometry x="385.39" y="3995" width="60" height="30" as="geometry" />
        </mxCell>
        <mxCell id="k6RNii8f1NBobVwHWlQs-135" value="" style="shape=singleArrow;direction=west;whiteSpace=wrap;html=1;" parent="1" vertex="1">
          <mxGeometry x="247.5" y="4000" width="40" height="20" as="geometry" />
        </mxCell>
        <mxCell id="k6RNii8f1NBobVwHWlQs-136" value="" style="rounded=1;whiteSpace=wrap;html=1;" parent="1" vertex="1">
          <mxGeometry x="250" y="4070" width="340" height="30" as="geometry" />
        </mxCell>
        <mxCell id="k6RNii8f1NBobVwHWlQs-139" value="" style="verticalLabelPosition=bottom;verticalAlign=top;html=1;shape=mxgraph.basic.rounded_frame;dx=10;whiteSpace=wrap;" parent="1" vertex="1">
          <mxGeometry x="255" y="4140" width="85" height="40" as="geometry" />
        </mxCell>
        <mxCell id="k6RNii8f1NBobVwHWlQs-140" value="" style="verticalLabelPosition=bottom;verticalAlign=top;html=1;shape=mxgraph.basic.rounded_frame;dx=10;whiteSpace=wrap;" parent="1" vertex="1">
          <mxGeometry x="507.5" y="4140" width="85" height="40" as="geometry" />
        </mxCell>
        <mxCell id="k6RNii8f1NBobVwHWlQs-141" value="" style="verticalLabelPosition=bottom;verticalAlign=top;html=1;shape=mxgraph.basic.rounded_frame;dx=10;whiteSpace=wrap;" parent="1" vertex="1">
          <mxGeometry x="375" y="4140" width="85" height="40" as="geometry" />
        </mxCell>
        <mxCell id="k6RNii8f1NBobVwHWlQs-142" value="" style="shape=partialRectangle;whiteSpace=wrap;html=1;top=0;bottom=0;fillColor=none;rotation=90;" parent="1" vertex="1">
          <mxGeometry x="307" y="4180" width="10" height="130" as="geometry" />
        </mxCell>
        <mxCell id="k6RNii8f1NBobVwHWlQs-143" value="" style="verticalLabelPosition=bottom;verticalAlign=top;html=1;shape=mxgraph.basic.rect;fillColor2=none;strokeWidth=1;size=20;indent=5;" parent="1" vertex="1">
          <mxGeometry x="277" y="4270" width="273" height="60" as="geometry" />
        </mxCell>
        <mxCell id="k6RNii8f1NBobVwHWlQs-144" value="" style="verticalLabelPosition=bottom;verticalAlign=top;html=1;shape=mxgraph.basic.rect;fillColor2=none;strokeWidth=1;size=20;indent=5;" parent="1" vertex="1">
          <mxGeometry x="278.89" y="4370" width="273" height="60" as="geometry" />
        </mxCell>
        <mxCell id="k6RNii8f1NBobVwHWlQs-145" value="" style="verticalLabelPosition=bottom;verticalAlign=top;html=1;shape=mxgraph.basic.rect;fillColor2=none;strokeWidth=1;size=20;indent=5;" parent="1" vertex="1">
          <mxGeometry x="280" y="4470" width="273" height="60" as="geometry" />
        </mxCell>
        <mxCell id="k6RNii8f1NBobVwHWlQs-146" value="" style="shape=partialRectangle;whiteSpace=wrap;html=1;top=0;bottom=0;fillColor=none;rotation=90;" parent="1" vertex="1">
          <mxGeometry x="407" y="4580" width="10" height="130" as="geometry" />
        </mxCell>
        <mxCell id="k6RNii8f1NBobVwHWlQs-147" value="vista seccion de publicaciones o cumunicados diarios" style="text;html=1;align=center;verticalAlign=middle;resizable=0;points=[];autosize=1;strokeColor=none;fillColor=none;" parent="1" vertex="1">
          <mxGeometry x="267" y="3940" width="310" height="30" as="geometry" />
        </mxCell>
        <mxCell id="k6RNii8f1NBobVwHWlQs-148" value="" style="rounded=0;whiteSpace=wrap;html=1;fillColor=none;" parent="1" vertex="1">
          <mxGeometry x="232" y="4900" width="380" height="760" as="geometry" />
        </mxCell>
        <mxCell id="k6RNii8f1NBobVwHWlQs-149" value="formulario de contacto" style="text;html=1;align=center;verticalAlign=middle;resizable=0;points=[];autosize=1;strokeColor=none;fillColor=none;" parent="1" vertex="1">
          <mxGeometry x="339" y="4850" width="140" height="30" as="geometry" />
        </mxCell>
        <mxCell id="k6RNii8f1NBobVwHWlQs-150" value="&lt;b&gt;H1&lt;/b&gt;" style="text;html=1;align=center;verticalAlign=middle;resizable=0;points=[];autosize=1;strokeColor=none;fillColor=none;" parent="1" vertex="1">
          <mxGeometry x="397" y="4930" width="40" height="30" as="geometry" />
        </mxCell>
        <mxCell id="k6RNii8f1NBobVwHWlQs-151" value="" style="shape=partialRectangle;whiteSpace=wrap;html=1;top=0;bottom=0;fillColor=none;rotation=90;" parent="1" vertex="1">
          <mxGeometry x="414" y="4930" width="10" height="130" as="geometry" />
        </mxCell>
        <mxCell id="k6RNii8f1NBobVwHWlQs-152" value="" style="verticalLabelPosition=bottom;verticalAlign=top;html=1;shape=mxgraph.basic.rect;fillColor2=none;strokeWidth=1;size=20;indent=5;fillColor=none;" parent="1" vertex="1">
          <mxGeometry x="337" y="4920" width="170" height="110" as="geometry" />
        </mxCell>
        <mxCell id="k6RNii8f1NBobVwHWlQs-153" value="" style="verticalLabelPosition=bottom;verticalAlign=top;html=1;shape=mxgraph.basic.rect;fillColor2=none;strokeWidth=1;size=20;indent=5;" parent="1" vertex="1">
          <mxGeometry x="270" y="5060" width="310" height="30" as="geometry" />
        </mxCell>
        <mxCell id="k6RNii8f1NBobVwHWlQs-154" value="" style="verticalLabelPosition=bottom;verticalAlign=top;html=1;shape=mxgraph.basic.rect;fillColor2=none;strokeWidth=1;size=20;indent=5;" parent="1" vertex="1">
          <mxGeometry x="270" y="5130" width="310" height="30" as="geometry" />
        </mxCell>
        <mxCell id="k6RNii8f1NBobVwHWlQs-155" value="" style="verticalLabelPosition=bottom;verticalAlign=top;html=1;shape=mxgraph.basic.rect;fillColor2=none;strokeWidth=1;size=20;indent=5;" parent="1" vertex="1">
          <mxGeometry x="270" y="5210" width="310" height="30" as="geometry" />
        </mxCell>
        <mxCell id="k6RNii8f1NBobVwHWlQs-156" value="" style="verticalLabelPosition=bottom;verticalAlign=top;html=1;shape=mxgraph.basic.polygon;polyCoords=[[0.25,0],[0.75,0],[1,0.25],[1,0.75],[0.75,1],[0.25,1],[0,0.75],[0,0.25]];polyline=0;" parent="1" vertex="1">
          <mxGeometry x="272.5" y="5300" width="30" height="30" as="geometry" />
        </mxCell>
        <mxCell id="k6RNii8f1NBobVwHWlQs-157" value="" style="verticalLabelPosition=bottom;verticalAlign=top;html=1;shape=mxgraph.basic.polygon;polyCoords=[[0.25,0],[0.75,0],[1,0.25],[1,0.75],[0.75,1],[0.25,1],[0,0.75],[0,0.25]];polyline=0;" parent="1" vertex="1">
          <mxGeometry x="271.5" y="5350" width="30" height="30" as="geometry" />
        </mxCell>
        <mxCell id="k6RNii8f1NBobVwHWlQs-158" value="" style="verticalLabelPosition=bottom;verticalAlign=top;html=1;shape=mxgraph.basic.polygon;polyCoords=[[0.25,0],[0.75,0],[1,0.25],[1,0.75],[0.75,1],[0.25,1],[0,0.75],[0,0.25]];polyline=0;" parent="1" vertex="1">
          <mxGeometry x="272.5" y="5400" width="30" height="30" as="geometry" />
        </mxCell>
        <mxCell id="k6RNii8f1NBobVwHWlQs-159" value="" style="shape=partialRectangle;whiteSpace=wrap;html=1;top=0;bottom=0;fillColor=none;rotation=90;" parent="1" vertex="1">
          <mxGeometry x="382" y="5250" width="10" height="130" as="geometry" />
        </mxCell>
        <mxCell id="k6RNii8f1NBobVwHWlQs-160" value="" style="shape=partialRectangle;whiteSpace=wrap;html=1;top=0;bottom=0;fillColor=none;rotation=90;" parent="1" vertex="1">
          <mxGeometry x="382" y="5300" width="10" height="130" as="geometry" />
        </mxCell>
        <mxCell id="k6RNii8f1NBobVwHWlQs-161" value="" style="shape=partialRectangle;whiteSpace=wrap;html=1;top=0;bottom=0;fillColor=none;rotation=90;" parent="1" vertex="1">
          <mxGeometry x="382" y="5350" width="10" height="130" as="geometry" />
        </mxCell>
        <mxCell id="k6RNii8f1NBobVwHWlQs-163" value="" style="verticalLabelPosition=bottom;verticalAlign=top;html=1;shape=mxgraph.basic.rect;fillColor2=none;strokeWidth=1;size=20;indent=5;" parent="1" vertex="1">
          <mxGeometry x="271.5" y="5470" width="310" height="30" as="geometry" />
        </mxCell>
        <mxCell id="k6RNii8f1NBobVwHWlQs-164" value="" style="verticalLabelPosition=bottom;verticalAlign=top;html=1;shape=mxgraph.basic.rounded_frame;dx=10;whiteSpace=wrap;" parent="1" vertex="1">
          <mxGeometry x="309" y="5540" width="210" height="60" as="geometry" />
        </mxCell>
        <mxCell id="k6RNii8f1NBobVwHWlQs-165" value="son iconos" style="text;html=1;align=center;verticalAlign=middle;resizable=0;points=[];autosize=1;strokeColor=none;fillColor=none;" parent="1" vertex="1">
          <mxGeometry x="612" y="410" width="80" height="30" as="geometry" />
        </mxCell>
        <mxCell id="k6RNii8f1NBobVwHWlQs-166" value="profesionales" style="text;html=1;align=center;verticalAlign=middle;resizable=0;points=[];autosize=1;strokeColor=none;fillColor=none;" parent="1" vertex="1">
          <mxGeometry x="645" y="838" width="90" height="30" as="geometry" />
        </mxCell>
        <mxCell id="bSuhwO-Zzq7l8_qwihSz-2" value="" style="rounded=0;whiteSpace=wrap;html=1;" parent="1" vertex="1">
          <mxGeometry x="-670" y="-120" width="720" height="2230" as="geometry" />
        </mxCell>
        <mxCell id="bSuhwO-Zzq7l8_qwihSz-3" value="" style="ellipse;whiteSpace=wrap;html=1;aspect=fixed;" parent="1" vertex="1">
          <mxGeometry x="-650" y="-105" width="50" height="50" as="geometry" />
        </mxCell>
        <mxCell id="bSuhwO-Zzq7l8_qwihSz-4" value="" style="rounded=0;whiteSpace=wrap;html=1;fillColor=none;" parent="1" vertex="1">
          <mxGeometry x="-670" y="-120" width="720" height="75" as="geometry" />
        </mxCell>
        <mxCell id="bSuhwO-Zzq7l8_qwihSz-5" value="Title" style="text;strokeColor=none;fillColor=none;html=1;fontSize=24;fontStyle=1;verticalAlign=middle;align=center;" parent="1" vertex="1">
          <mxGeometry x="-520" y="-80" width="70" height="10" as="geometry" />
        </mxCell>
        <mxCell id="bSuhwO-Zzq7l8_qwihSz-6" value="Title" style="text;strokeColor=none;fillColor=none;html=1;fontSize=24;fontStyle=1;verticalAlign=middle;align=center;" parent="1" vertex="1">
          <mxGeometry x="-200" y="-80" width="70" height="10" as="geometry" />
        </mxCell>
        <mxCell id="bSuhwO-Zzq7l8_qwihSz-7" value="Title" style="text;strokeColor=none;fillColor=none;html=1;fontSize=24;fontStyle=1;verticalAlign=middle;align=center;" parent="1" vertex="1">
          <mxGeometry x="-307.5" y="-75" width="70" as="geometry" />
        </mxCell>
        <mxCell id="bSuhwO-Zzq7l8_qwihSz-9" value="Title" style="text;strokeColor=none;fillColor=none;html=1;fontSize=24;fontStyle=1;verticalAlign=middle;align=center;" parent="1" vertex="1">
          <mxGeometry x="-74.22" y="-80" width="70" height="10" as="geometry" />
        </mxCell>
        <mxCell id="bSuhwO-Zzq7l8_qwihSz-10" value="" style="rounded=1;whiteSpace=wrap;html=1;strokeWidth=2;fillWeight=4;hachureGap=8;hachureAngle=45;fillColor=#ffe6cc;sketch=1;strokeColor=#d79b00;" parent="1" vertex="1">
          <mxGeometry x="-670" y="-40" width="720" height="280" as="geometry" />
        </mxCell>
        <mxCell id="bSuhwO-Zzq7l8_qwihSz-11" value="" style="rounded=1;whiteSpace=wrap;html=1;strokeWidth=2;fillWeight=4;hachureGap=8;hachureAngle=45;sketch=1;fillColor=#ffe6cc;strokeColor=#d79b00;" parent="1" vertex="1">
          <mxGeometry x="246.5" y="-45" width="343.5" height="105" as="geometry" />
        </mxCell>
        <mxCell id="bSuhwO-Zzq7l8_qwihSz-12" value="&lt;b&gt;H1&lt;/b&gt;" style="text;html=1;align=center;verticalAlign=middle;whiteSpace=wrap;rounded=0;" parent="1" vertex="1">
          <mxGeometry x="-430" y="160" width="200" height="60" as="geometry" />
        </mxCell>
        <mxCell id="bSuhwO-Zzq7l8_qwihSz-13" value="&lt;b&gt;H1&lt;/b&gt;" style="text;html=1;align=center;verticalAlign=middle;whiteSpace=wrap;rounded=0;" parent="1" vertex="1">
          <mxGeometry x="-432.22" y="240" width="200" height="60" as="geometry" />
        </mxCell>
        <mxCell id="bSuhwO-Zzq7l8_qwihSz-15" value="" style="shape=partialRectangle;whiteSpace=wrap;html=1;top=0;bottom=0;fillColor=none;rotation=90;" parent="1" vertex="1">
          <mxGeometry x="-337.22" y="400" width="10" height="40" as="geometry" />
        </mxCell>
        <mxCell id="bSuhwO-Zzq7l8_qwihSz-16" value="" style="ellipse;whiteSpace=wrap;html=1;aspect=fixed;" parent="1" vertex="1">
          <mxGeometry x="-610" y="310" width="80" height="80" as="geometry" />
        </mxCell>
        <mxCell id="bSuhwO-Zzq7l8_qwihSz-17" value="" style="verticalLabelPosition=bottom;verticalAlign=top;html=1;shape=mxgraph.basic.rect;fillColor2=none;strokeWidth=1;size=20;indent=5;fillColor=none;rotation=90;" parent="1" vertex="1">
          <mxGeometry x="-413" y="317.82" width="161.56" height="124.37" as="geometry" />
        </mxCell>
        <mxCell id="bSuhwO-Zzq7l8_qwihSz-18" value="" style="verticalLabelPosition=bottom;verticalAlign=top;html=1;shape=mxgraph.basic.rect;fillColor2=none;strokeWidth=1;size=20;indent=5;fillColor=none;rotation=90;" parent="1" vertex="1">
          <mxGeometry x="-650" y="316.25" width="160" height="127.5" as="geometry" />
        </mxCell>
        <mxCell id="bSuhwO-Zzq7l8_qwihSz-19" value="" style="shape=partialRectangle;whiteSpace=wrap;html=1;top=0;bottom=0;fillColor=none;rotation=90;" parent="1" vertex="1">
          <mxGeometry x="-84.22" y="400" width="10" height="40" as="geometry" />
        </mxCell>
        <mxCell id="bSuhwO-Zzq7l8_qwihSz-20" value="" style="shape=partialRectangle;whiteSpace=wrap;html=1;top=0;bottom=0;fillColor=none;rotation=90;" parent="1" vertex="1">
          <mxGeometry x="-575" y="410" width="10" height="40" as="geometry" />
        </mxCell>
        <mxCell id="bSuhwO-Zzq7l8_qwihSz-21" value="" style="verticalLabelPosition=bottom;verticalAlign=top;html=1;shape=mxgraph.basic.rect;fillColor2=none;strokeWidth=1;size=20;indent=5;fillColor=none;rotation=90;" parent="1" vertex="1">
          <mxGeometry x="-160" y="319.38" width="161.56" height="124.37" as="geometry" />
        </mxCell>
        <mxCell id="bSuhwO-Zzq7l8_qwihSz-22" value="" style="ellipse;whiteSpace=wrap;html=1;aspect=fixed;" parent="1" vertex="1">
          <mxGeometry x="-372.22" y="310" width="80" height="80" as="geometry" />
        </mxCell>
        <mxCell id="bSuhwO-Zzq7l8_qwihSz-23" value="" style="ellipse;whiteSpace=wrap;html=1;aspect=fixed;" parent="1" vertex="1">
          <mxGeometry x="-119.22" y="316.25" width="80" height="80" as="geometry" />
        </mxCell>
        <mxCell id="bSuhwO-Zzq7l8_qwihSz-24" value="&lt;b&gt;H1&lt;/b&gt;" style="text;html=1;align=center;verticalAlign=middle;whiteSpace=wrap;rounded=0;" parent="1" vertex="1">
          <mxGeometry x="-422.22" y="490" width="200" height="60" as="geometry" />
        </mxCell>
        <mxCell id="bSuhwO-Zzq7l8_qwihSz-25" value="" style="verticalLabelPosition=bottom;verticalAlign=top;html=1;shape=mxgraph.basic.rect;fillColor2=none;strokeWidth=1;size=20;indent=5;fillColor=none;" parent="1" vertex="1">
          <mxGeometry x="-258.44" y="745" width="260" height="60" as="geometry" />
        </mxCell>
        <mxCell id="bSuhwO-Zzq7l8_qwihSz-27" value="" style="shape=partialRectangle;whiteSpace=wrap;html=1;top=0;bottom=0;fillColor=none;rotation=90;" parent="1" vertex="1">
          <mxGeometry x="-520" y="660" width="10" height="40" as="geometry" />
        </mxCell>
        <mxCell id="bSuhwO-Zzq7l8_qwihSz-28" value="" style="ellipse;whiteSpace=wrap;html=1;aspect=fixed;" parent="1" vertex="1">
          <mxGeometry x="-250" y="750" width="50" height="50" as="geometry" />
        </mxCell>
        <mxCell id="bSuhwO-Zzq7l8_qwihSz-29" value="" style="verticalLabelPosition=bottom;verticalAlign=top;html=1;shape=mxgraph.basic.rect;fillColor2=none;strokeWidth=1;size=20;indent=5;fillColor=none;" parent="1" vertex="1">
          <mxGeometry x="-260" y="640" width="260" height="60" as="geometry" />
        </mxCell>
        <mxCell id="bSuhwO-Zzq7l8_qwihSz-30" value="" style="verticalLabelPosition=bottom;verticalAlign=top;html=1;shape=mxgraph.basic.rect;fillColor2=none;strokeWidth=1;size=20;indent=5;fillColor=none;" parent="1" vertex="1">
          <mxGeometry x="-640" y="745" width="260" height="60" as="geometry" />
        </mxCell>
        <mxCell id="bSuhwO-Zzq7l8_qwihSz-31" value="" style="verticalLabelPosition=bottom;verticalAlign=top;html=1;shape=mxgraph.basic.rect;fillColor2=none;strokeWidth=1;size=20;indent=5;fillColor=none;" parent="1" vertex="1">
          <mxGeometry x="-640" y="645" width="260" height="60" as="geometry" />
        </mxCell>
        <mxCell id="bSuhwO-Zzq7l8_qwihSz-32" value="" style="verticalLabelPosition=bottom;verticalAlign=top;html=1;shape=mxgraph.basic.rect;fillColor2=none;strokeWidth=1;size=20;indent=5;fillColor=none;" parent="1" vertex="1">
          <mxGeometry x="-258.44" y="540" width="260" height="60" as="geometry" />
        </mxCell>
        <mxCell id="bSuhwO-Zzq7l8_qwihSz-33" value="" style="verticalLabelPosition=bottom;verticalAlign=top;html=1;shape=mxgraph.basic.rect;fillColor2=none;strokeWidth=1;size=20;indent=5;fillColor=none;" parent="1" vertex="1">
          <mxGeometry x="-640" y="540" width="260" height="60" as="geometry" />
        </mxCell>
        <mxCell id="bSuhwO-Zzq7l8_qwihSz-36" value="" style="ellipse;whiteSpace=wrap;html=1;aspect=fixed;" parent="1" vertex="1">
          <mxGeometry x="-250" y="645" width="50" height="50" as="geometry" />
        </mxCell>
        <mxCell id="bSuhwO-Zzq7l8_qwihSz-37" value="" style="ellipse;whiteSpace=wrap;html=1;aspect=fixed;" parent="1" vertex="1">
          <mxGeometry x="-630" y="750" width="50" height="50" as="geometry" />
        </mxCell>
        <mxCell id="bSuhwO-Zzq7l8_qwihSz-38" value="" style="ellipse;whiteSpace=wrap;html=1;aspect=fixed;" parent="1" vertex="1">
          <mxGeometry x="-250" y="545" width="50" height="50" as="geometry" />
        </mxCell>
        <mxCell id="bSuhwO-Zzq7l8_qwihSz-39" value="" style="ellipse;whiteSpace=wrap;html=1;aspect=fixed;" parent="1" vertex="1">
          <mxGeometry x="-630" y="650" width="50" height="50" as="geometry" />
        </mxCell>
        <mxCell id="bSuhwO-Zzq7l8_qwihSz-40" value="" style="ellipse;whiteSpace=wrap;html=1;aspect=fixed;" parent="1" vertex="1">
          <mxGeometry x="-630" y="545" width="50" height="50" as="geometry" />
        </mxCell>
        <mxCell id="bSuhwO-Zzq7l8_qwihSz-41" value="" style="shape=actor;whiteSpace=wrap;html=1;" parent="1" vertex="1">
          <mxGeometry x="-237.50000000000003" y="760" width="25" height="30" as="geometry" />
        </mxCell>
        <mxCell id="bSuhwO-Zzq7l8_qwihSz-42" value="" style="shape=actor;whiteSpace=wrap;html=1;" parent="1" vertex="1">
          <mxGeometry x="-237.5" y="655" width="25" height="30" as="geometry" />
        </mxCell>
        <mxCell id="bSuhwO-Zzq7l8_qwihSz-43" value="" style="shape=actor;whiteSpace=wrap;html=1;" parent="1" vertex="1">
          <mxGeometry x="-617.5" y="555" width="25" height="30" as="geometry" />
        </mxCell>
        <mxCell id="bSuhwO-Zzq7l8_qwihSz-44" value="" style="shape=actor;whiteSpace=wrap;html=1;" parent="1" vertex="1">
          <mxGeometry x="-237.5" y="555" width="25" height="30" as="geometry" />
        </mxCell>
        <mxCell id="bSuhwO-Zzq7l8_qwihSz-45" value="" style="shape=actor;whiteSpace=wrap;html=1;" parent="1" vertex="1">
          <mxGeometry x="-617.5" y="660" width="25" height="30" as="geometry" />
        </mxCell>
        <mxCell id="bSuhwO-Zzq7l8_qwihSz-46" value="" style="shape=actor;whiteSpace=wrap;html=1;" parent="1" vertex="1">
          <mxGeometry x="-617.5" y="760" width="25" height="30" as="geometry" />
        </mxCell>
        <mxCell id="bSuhwO-Zzq7l8_qwihSz-49" value="" style="shape=partialRectangle;whiteSpace=wrap;html=1;top=0;bottom=0;fillColor=none;rotation=90;" parent="1" vertex="1">
          <mxGeometry x="-520" y="760" width="10" height="40" as="geometry" />
        </mxCell>
        <mxCell id="bSuhwO-Zzq7l8_qwihSz-50" value="" style="shape=partialRectangle;whiteSpace=wrap;html=1;top=0;bottom=0;fillColor=none;rotation=90;" parent="1" vertex="1">
          <mxGeometry x="-129.22000000000003" y="550" width="10" height="40" as="geometry" />
        </mxCell>
        <mxCell id="bSuhwO-Zzq7l8_qwihSz-51" value="" style="shape=partialRectangle;whiteSpace=wrap;html=1;top=0;bottom=0;fillColor=none;rotation=90;" parent="1" vertex="1">
          <mxGeometry x="-140.00000000000003" y="650" width="10" height="40" as="geometry" />
        </mxCell>
        <mxCell id="bSuhwO-Zzq7l8_qwihSz-52" value="" style="shape=partialRectangle;whiteSpace=wrap;html=1;top=0;bottom=0;fillColor=none;rotation=90;" parent="1" vertex="1">
          <mxGeometry x="-140.00000000000003" y="755" width="10" height="40" as="geometry" />
        </mxCell>
        <mxCell id="bSuhwO-Zzq7l8_qwihSz-53" value="" style="shape=partialRectangle;whiteSpace=wrap;html=1;top=0;bottom=0;fillColor=none;rotation=90;" parent="1" vertex="1">
          <mxGeometry x="-520" y="550" width="10" height="40" as="geometry" />
        </mxCell>
        <mxCell id="bSuhwO-Zzq7l8_qwihSz-54" value="Title" style="text;strokeColor=none;fillColor=none;html=1;fontSize=24;fontStyle=1;verticalAlign=middle;align=center;" parent="1" vertex="1">
          <mxGeometry x="-413" y="-80" width="70" height="10" as="geometry" />
        </mxCell>
        <mxCell id="bSuhwO-Zzq7l8_qwihSz-56" value="&lt;b&gt;H1&lt;/b&gt;" style="text;html=1;align=center;verticalAlign=middle;whiteSpace=wrap;rounded=0;" parent="1" vertex="1">
          <mxGeometry x="-422.22" y="830" width="200" height="60" as="geometry" />
        </mxCell>
        <mxCell id="bSuhwO-Zzq7l8_qwihSz-57" value="" style="whiteSpace=wrap;html=1;aspect=fixed;" parent="1" vertex="1">
          <mxGeometry x="-610" y="900" width="110" height="110" as="geometry" />
        </mxCell>
        <mxCell id="bSuhwO-Zzq7l8_qwihSz-58" value="" style="whiteSpace=wrap;html=1;aspect=fixed;" parent="1" vertex="1">
          <mxGeometry x="-370" y="900" width="110" height="110" as="geometry" />
        </mxCell>
        <mxCell id="bSuhwO-Zzq7l8_qwihSz-59" value="" style="whiteSpace=wrap;html=1;aspect=fixed;" parent="1" vertex="1">
          <mxGeometry x="-130" y="900" width="110" height="110" as="geometry" />
        </mxCell>
        <mxCell id="bSuhwO-Zzq7l8_qwihSz-60" value="" style="shape=partialRectangle;whiteSpace=wrap;html=1;top=0;bottom=0;fillColor=none;rotation=90;" parent="1" vertex="1">
          <mxGeometry x="-327.22" y="1092.5" width="10" height="85" as="geometry" />
        </mxCell>
        <mxCell id="bSuhwO-Zzq7l8_qwihSz-61" value="" style="verticalLabelPosition=bottom;verticalAlign=top;html=1;shape=mxgraph.basic.drop;rotation=-180;" parent="1" vertex="1">
          <mxGeometry x="-352.22" y="1330" width="60" height="90" as="geometry" />
        </mxCell>
        <mxCell id="bSuhwO-Zzq7l8_qwihSz-62" value="" style="ellipse;whiteSpace=wrap;html=1;aspect=fixed;fillColor=none;" parent="1" vertex="1">
          <mxGeometry x="-337.22" y="1346.6399999999999" width="30" height="30" as="geometry" />
        </mxCell>
        <mxCell id="bSuhwO-Zzq7l8_qwihSz-63" value="" style="rounded=0;whiteSpace=wrap;html=1;fillColor=none;" parent="1" vertex="1">
          <mxGeometry x="-520" y="1169" width="410" height="251" as="geometry" />
        </mxCell>
        <mxCell id="bSuhwO-Zzq7l8_qwihSz-64" value="&lt;b&gt;H1&lt;/b&gt;" style="text;html=1;align=center;verticalAlign=middle;whiteSpace=wrap;rounded=0;" parent="1" vertex="1">
          <mxGeometry x="-422.22" y="1075" width="200" height="60" as="geometry" />
        </mxCell>
        <mxCell id="bSuhwO-Zzq7l8_qwihSz-66" value="" style="verticalLabelPosition=bottom;verticalAlign=top;html=1;shape=mxgraph.basic.rect;fillColor2=none;strokeWidth=1;size=20;indent=5;rotation=90;" parent="1" vertex="1">
          <mxGeometry x="-465.08" y="1608.44" width="300.16" height="191.56" as="geometry" />
        </mxCell>
        <mxCell id="bSuhwO-Zzq7l8_qwihSz-67" value="" style="verticalLabelPosition=bottom;verticalAlign=top;html=1;shape=mxgraph.basic.rounded_frame;dx=10;whiteSpace=wrap;" parent="1" vertex="1">
          <mxGeometry x="-402.22" y="1800" width="160" height="40" as="geometry" />
        </mxCell>
        <mxCell id="bSuhwO-Zzq7l8_qwihSz-68" value="" style="verticalLabelPosition=bottom;verticalAlign=top;html=1;shape=mxgraph.basic.patternFillRect;fillStyle=grid;step=5;fillStrokeWidth=0.2;fillStrokeColor=#dddddd;" parent="1" vertex="1">
          <mxGeometry x="-375" y="1750" width="120" height="20" as="geometry" />
        </mxCell>
        <mxCell id="bSuhwO-Zzq7l8_qwihSz-69" value="" style="verticalLabelPosition=bottom;verticalAlign=top;html=1;shape=mxgraph.basic.patternFillRect;fillStyle=grid;step=5;fillStrokeWidth=0.2;fillStrokeColor=#dddddd;" parent="1" vertex="1">
          <mxGeometry x="-375" y="1710" width="120" height="20" as="geometry" />
        </mxCell>
        <mxCell id="bSuhwO-Zzq7l8_qwihSz-70" value="" style="verticalLabelPosition=bottom;verticalAlign=top;html=1;shape=mxgraph.basic.patternFillRect;fillStyle=grid;step=5;fillStrokeWidth=0.2;fillStrokeColor=#dddddd;" parent="1" vertex="1">
          <mxGeometry x="-375" y="1670" width="120" height="20" as="geometry" />
        </mxCell>
        <mxCell id="bSuhwO-Zzq7l8_qwihSz-71" value="" style="verticalLabelPosition=bottom;verticalAlign=top;html=1;shape=mxgraph.basic.patternFillRect;fillStyle=grid;step=5;fillStrokeWidth=0.2;fillStrokeColor=#dddddd;" parent="1" vertex="1">
          <mxGeometry x="-375" y="1630" width="120" height="20" as="geometry" />
        </mxCell>
        <mxCell id="bSuhwO-Zzq7l8_qwihSz-72" value="" style="verticalLabelPosition=bottom;verticalAlign=top;html=1;shape=mxgraph.basic.patternFillRect;fillStyle=grid;step=5;fillStrokeWidth=0.2;fillStrokeColor=#dddddd;" parent="1" vertex="1">
          <mxGeometry x="-375" y="1588.44" width="120" height="20" as="geometry" />
        </mxCell>
        <mxCell id="bSuhwO-Zzq7l8_qwihSz-73" value="" style="verticalLabelPosition=bottom;verticalAlign=top;html=1;shape=mxgraph.basic.patternFillRect;fillStyle=grid;step=5;fillStrokeWidth=0.2;fillStrokeColor=#dddddd;" parent="1" vertex="1">
          <mxGeometry x="-670" y="1990" width="720" height="130" as="geometry" />
        </mxCell>
        <mxCell id="bSuhwO-Zzq7l8_qwihSz-74" value="" style="ellipse;whiteSpace=wrap;html=1;aspect=fixed;" parent="1" vertex="1">
          <mxGeometry x="-635" y="2011.56" width="70" height="70" as="geometry" />
        </mxCell>
        <mxCell id="bSuhwO-Zzq7l8_qwihSz-75" value="" style="whiteSpace=wrap;html=1;aspect=fixed;" parent="1" vertex="1">
          <mxGeometry x="-30" y="2030" width="50" height="50" as="geometry" />
        </mxCell>
        <mxCell id="bSuhwO-Zzq7l8_qwihSz-76" value="" style="whiteSpace=wrap;html=1;aspect=fixed;" parent="1" vertex="1">
          <mxGeometry x="-110" y="2030" width="50" height="50" as="geometry" />
        </mxCell>
        <mxCell id="bSuhwO-Zzq7l8_qwihSz-77" value="" style="whiteSpace=wrap;html=1;aspect=fixed;" parent="1" vertex="1">
          <mxGeometry x="-179.22" y="2030" width="50" height="50" as="geometry" />
        </mxCell>
        <mxCell id="bSuhwO-Zzq7l8_qwihSz-78" value="" style="shape=partialRectangle;whiteSpace=wrap;html=1;top=0;bottom=0;fillColor=none;rotation=0;direction=south;" parent="1" vertex="1">
          <mxGeometry x="-277.22" y="2030" width="35" height="10" as="geometry" />
        </mxCell>
        <mxCell id="bSuhwO-Zzq7l8_qwihSz-79" value="" style="shape=partialRectangle;whiteSpace=wrap;html=1;top=0;bottom=0;fillColor=none;rotation=0;direction=south;" parent="1" vertex="1">
          <mxGeometry x="-277.22" y="2050" width="35" height="10" as="geometry" />
        </mxCell>
        <mxCell id="bSuhwO-Zzq7l8_qwihSz-80" value="" style="shape=partialRectangle;whiteSpace=wrap;html=1;top=0;bottom=0;fillColor=none;rotation=0;direction=south;" parent="1" vertex="1">
          <mxGeometry x="-277.22" y="2071.56" width="35" height="10" as="geometry" />
        </mxCell>
        <mxCell id="bSuhwO-Zzq7l8_qwihSz-81" value="" style="shape=partialRectangle;whiteSpace=wrap;html=1;top=0;bottom=0;fillColor=none;rotation=0;direction=south;" parent="1" vertex="1">
          <mxGeometry x="-327.22" y="2030" width="35" height="10" as="geometry" />
        </mxCell>
        <mxCell id="bSuhwO-Zzq7l8_qwihSz-82" value="" style="shape=partialRectangle;whiteSpace=wrap;html=1;top=0;bottom=0;fillColor=none;rotation=0;direction=south;" parent="1" vertex="1">
          <mxGeometry x="-327.22" y="2050" width="35" height="10" as="geometry" />
        </mxCell>
        <mxCell id="bSuhwO-Zzq7l8_qwihSz-83" value="" style="shape=partialRectangle;whiteSpace=wrap;html=1;top=0;bottom=0;fillColor=none;rotation=0;direction=south;" parent="1" vertex="1">
          <mxGeometry x="-327.22" y="2070" width="35" height="10" as="geometry" />
        </mxCell>
        <mxCell id="bSuhwO-Zzq7l8_qwihSz-84" value="" style="shape=partialRectangle;whiteSpace=wrap;html=1;top=0;bottom=0;fillColor=none;rotation=0;direction=south;" parent="1" vertex="1">
          <mxGeometry x="-380" y="2030" width="35" height="10" as="geometry" />
        </mxCell>
        <mxCell id="bSuhwO-Zzq7l8_qwihSz-85" value="" style="shape=partialRectangle;whiteSpace=wrap;html=1;top=0;bottom=0;fillColor=none;rotation=0;direction=south;" parent="1" vertex="1">
          <mxGeometry x="-380" y="2050" width="35" height="10" as="geometry" />
        </mxCell>
        <mxCell id="bSuhwO-Zzq7l8_qwihSz-86" value="" style="shape=partialRectangle;whiteSpace=wrap;html=1;top=0;bottom=0;fillColor=none;rotation=0;direction=south;" parent="1" vertex="1">
          <mxGeometry x="-380" y="2070" width="35" height="10" as="geometry" />
        </mxCell>
        <mxCell id="bSuhwO-Zzq7l8_qwihSz-89" value="" style="rounded=0;whiteSpace=wrap;html=1;fillColor=none;" parent="1" vertex="1">
          <mxGeometry x="240" y="-127.33" width="350" height="67.33" as="geometry" />
        </mxCell>
      </root>
    </mxGraphModel>
  </diagram>
</mxfile>
